<svg width="20" height="21" viewBox="0 0 20 21" fill="none" xmlns="http://www.w3.org/2000/svg">
<path fill-rule="evenodd" clip-rule="evenodd" d="M3.25 8.805V6.75C3.25 4.95979 3.96116 3.2429 5.22703 1.97703C6.4929 0.711159 8.20979 0 10 0C11.7902 0 13.5071 0.711159 14.773 1.97703C16.0388 3.2429 16.75 4.95979 16.75 6.75V8.805C17.865 8.888 18.59 9.098 19.121 9.629C20 10.507 20 11.922 20 14.75C20 17.578 20 18.993 19.121 19.871C18.243 20.75 16.828 20.75 14 20.75H6C3.172 20.75 1.757 20.75 0.879 19.871C-5.96046e-08 18.993 0 17.578 0 14.75C0 11.922 -5.96046e-08 10.507 0.879 9.629C1.409 9.098 2.135 8.888 3.25 8.805ZM4.75 6.75C4.75 5.35761 5.30312 4.02225 6.28769 3.03769C7.27225 2.05312 8.60761 1.5 10 1.5C11.3924 1.5 12.7277 2.05312 13.7123 3.03769C14.6969 4.02225 15.25 5.35761 15.25 6.75V8.754C14.8673 8.75067 14.4507 8.74933 14 8.75H6C5.54867 8.74933 5.132 8.75067 4.75 8.754V6.75ZM6 15.75C6.26522 15.75 6.51957 15.6446 6.70711 15.4571C6.89464 15.2696 7 15.0152 7 14.75C7 14.4848 6.89464 14.2304 6.70711 14.0429C6.51957 13.8554 6.26522 13.75 6 13.75C5.73478 13.75 5.48043 13.8554 5.29289 14.0429C5.10536 14.2304 5 14.4848 5 14.75C5 15.0152 5.10536 15.2696 5.29289 15.4571C5.48043 15.6446 5.73478 15.75 6 15.75ZM10 15.75C10.2652 15.75 10.5196 15.6446 10.7071 15.4571C10.8946 15.2696 11 15.0152 11 14.75C11 14.4848 10.8946 14.2304 10.7071 14.0429C10.5196 13.8554 10.2652 13.75 10 13.75C9.73478 13.75 9.48043 13.8554 9.29289 14.0429C9.10536 14.2304 9 14.4848 9 14.75C9 15.0152 9.10536 15.2696 9.29289 15.4571C9.48043 15.6446 9.73478 15.75 10 15.75ZM15 14.75C15 15.0152 14.8946 15.2696 14.7071 15.4571C14.5196 15.6446 14.2652 15.75 14 15.75C13.7348 15.75 13.4804 15.6446 13.2929 15.4571C13.1054 15.2696 13 15.0152 13 14.75C13 14.4848 13.1054 14.2304 13.2929 14.0429C13.4804 13.8554 13.7348 13.75 14 13.75C14.2652 13.75 14.5196 13.8554 14.7071 14.0429C14.8946 14.2304 15 14.4848 15 14.75Z" fill="#757575"/>
<path d="M10 0.5C11.6576 0.5 13.2468 1.15895 14.4189 2.33105C15.591 3.50316 16.25 5.0924 16.25 6.75V9.26953L16.7129 9.30371C17.6601 9.37422 18.2161 9.53478 18.6084 9.8418L18.7676 9.98242C19.0984 10.3129 19.2921 10.7631 19.3945 11.5244C19.4989 12.3003 19.5 13.3219 19.5 14.75C19.5 16.1781 19.4989 17.1997 19.3945 17.9756C19.3049 18.6417 19.1459 19.0698 18.8857 19.3877L18.7676 19.5176C18.4371 19.8484 17.9869 20.0421 17.2256 20.1445C16.4497 20.2489 15.4281 20.25 14 20.25H6C4.57186 20.25 3.55034 20.2489 2.77441 20.1445C2.10826 20.0549 1.68022 19.8959 1.3623 19.6357L1.23242 19.5176C0.901564 19.1871 0.707908 18.7369 0.605469 17.9756C0.501117 17.1997 0.5 16.1781 0.5 14.75C0.5 13.3219 0.501117 12.3003 0.605469 11.5244C0.695106 10.8583 0.854141 10.4302 1.11426 10.1123L1.23242 9.98242C1.63137 9.58272 2.20408 9.38433 3.28711 9.30371L3.75 9.26953V6.75C3.75 5.0924 4.40895 3.50316 5.58105 2.33105C6.75316 1.15895 8.3424 0.5 10 0.5ZM6 13.25C5.60218 13.25 5.22076 13.4081 4.93945 13.6895C4.65815 13.9708 4.5 14.3522 4.5 14.75C4.5 15.1478 4.65815 15.5292 4.93945 15.8105C5.22076 16.0919 5.60218 16.25 6 16.25C6.39782 16.25 6.77924 16.0919 7.06055 15.8105C7.34185 15.5292 7.5 15.1478 7.5 14.75C7.5 14.3522 7.34185 13.9708 7.06055 13.6895C6.77924 13.4081 6.39782 13.25 6 13.25ZM10 13.25C9.60217 13.25 9.22076 13.4081 8.93945 13.6895C8.65815 13.9708 8.5 14.3522 8.5 14.75C8.5 15.1478 8.65815 15.5292 8.93945 15.8105C9.22076 16.0919 9.60218 16.25 10 16.25C10.3978 16.25 10.7792 16.0919 11.0605 15.8105C11.3419 15.5292 11.5 15.1478 11.5 14.75C11.5 14.3522 11.3419 13.9708 11.0605 13.6895C10.7792 13.4081 10.3978 13.25 10 13.25ZM14 13.25C13.6022 13.25 13.2208 13.4081 12.9395 13.6895C12.6581 13.9708 12.5 14.3522 12.5 14.75C12.5 15.1478 12.6581 15.5292 12.9395 15.8105C13.2208 16.0919 13.6022 16.25 14 16.25C14.3978 16.25 14.7792 16.0919 15.0605 15.8105C15.3419 15.5292 15.5 15.1478 15.5 14.75C15.5 14.3522 15.3419 13.9708 15.0605 13.6895C14.7792 13.4081 14.3978 13.25 14 13.25ZM10 1C8.47501 1 7.0129 1.60624 5.93457 2.68457C4.85624 3.7629 4.25 5.22501 4.25 6.75V9.25879L4.75391 9.25391L5.99902 9.25H14.001C14.4501 9.24934 14.8655 9.25059 15.2461 9.25391L15.75 9.25879V6.75C15.75 5.22501 15.1438 3.7629 14.0654 2.68457C12.9871 1.60624 11.525 1 10 1Z" stroke="#0A5710" stroke-opacity="0.75"/>
</svg>
