<svg width="25" height="25" viewBox="0 0 25 25" fill="none" xmlns="http://www.w3.org/2000/svg">
<path d="M5.02911 5.02898H18.1045C18.9047 5.02898 19.6722 5.34689 20.2381 5.91276C20.804 6.47863 21.1219 7.24611 21.1219 8.04638V17.0985C21.1219 17.8988 20.804 18.6663 20.2381 19.2322C19.6722 19.798 18.9047 20.1159 18.1045 20.1159H5.02911C4.22885 20.1159 3.46136 19.798 2.89549 19.2322C2.32962 18.6663 2.01172 17.8988 2.01172 17.0985V8.04638C2.01172 7.24611 2.32962 6.47863 2.89549 5.91276C3.46136 5.34689 4.22885 5.02898 5.02911 5.02898ZM5.02911 6.03478C4.52621 6.03478 4.08366 6.20577 3.74169 6.50751L11.5668 11.5667L19.3919 6.50751C19.0499 6.20577 18.6074 6.03478 18.1045 6.03478H5.02911ZM11.5668 12.7837L3.14827 7.3222C3.06781 7.54348 3.01752 7.79493 3.01752 8.04638V17.0985C3.01752 17.6321 3.22945 18.1437 3.6067 18.521C3.98394 18.8982 4.4956 19.1101 5.02911 19.1101H18.1045C18.638 19.1101 19.1496 18.8982 19.5269 18.521C19.9041 18.1437 20.1161 17.6321 20.1161 17.0985V8.04638C20.1161 7.79493 20.0658 7.54348 19.9853 7.3222L11.5668 12.7837Z" fill="#0A5710" fill-opacity="0.75"/>
</svg>
